<svg xmlns="http://www.w3.org/2000/svg" width="1580.393" height="1289.606" viewBox="0 0 1580.393 1289.606">
  <g id="Group_47" data-name="Group 47" transform="translate(0 -461)">
    <path id="Path_28" data-name="Path 28" d="M1580.393,1140.693c-54.235,44.163-134.842,85.165-226.679,29.235C1168,1056.821,1148.563,676.565,984.782,585.227,830.31,499.079,797.274,809.281,607.755,724.094,493.889,672.91,474.812,547,348.693,453.67,208.316,349.787,84.34,396.541.578,453.67L0-32.552H1579.815Z" transform="translate(0 553.552)" fill="#e85b25"/>
    <path id="Rectangle_54" data-name="Rectangle 54" d="M15,0H1565a15,15,0,0,1,15,15V72a0,0,0,0,1,0,0H0a0,0,0,0,1,0,0V15A15,15,0,0,1,15,0Z" transform="translate(0 461)" fill="#e85b25"/>
  </g>
</svg>
